<?xml version="1.0" standalone="no"?>
<!DOCTYPE svg PUBLIC "-//W3C//DTD SVG 20010904//EN"
 "http://www.w3.org/TR/2001/REC-SVG-20010904/DTD/svg10.dtd">
<svg version="1.0" xmlns="http://www.w3.org/2000/svg"
 width="640.000000pt" height="512.000000pt" viewBox="0 0 640.000000 512.000000"
 preserveAspectRatio="xMidYMid meet">

<g transform="translate(0.000000,512.000000) scale(0.100000,-0.100000)"
fill="#000000" stroke="none">
<path d="M2100 5114 c-200 -26 -408 -102 -565 -207 -83 -56 -108 -77 -203
-170 -172 -170 -294 -396 -348 -647 -26 -119 -26 -381 0 -500 73 -338 268
-626 551 -817 126 -85 293 -154 455 -189 119 -26 381 -26 500 0 513 111 895
493 1006 1006 26 119 26 381 0 500 -111 513 -494 896 -1006 1006 -73 15 -320
27 -390 18z"/>
<path d="M4835 2852 c-136 -49 -1138 -443 -1176 -462 -49 -25 -103 -88 -124
-144 -32 -83 -8 -393 51 -653 145 -649 579 -1225 1129 -1501 140 -70 193 -86
268 -80 159 14 474 202 705 422 445 424 704 1033 706 1661 1 125 -1 144 -21
180 -27 50 -76 97 -128 123 -22 10 -303 122 -624 247 -667 260 -651 256 -786
207z"/>
<path d="M1540 2069 c-659 -75 -1226 -528 -1443 -1155 -64 -183 -105 -438 -95
-583 10 -134 84 -242 206 -299 l57 -27 1967 0 c1081 0 1970 4 1974 8 5 4 -14
27 -41 49 -99 83 -289 275 -368 373 -324 401 -537 924 -578 1425 -6 74 -13
140 -14 147 -5 15 -156 49 -277 62 -116 13 -1276 13 -1388 0z"/>
</g>
</svg>
